<?xml version="1.0" encoding="UTF-8" standalone="no"?>
<!-- Created with Inkscape (http://www.inkscape.org/) -->

<svg
   xmlns:dc="http://purl.org/dc/elements/1.1/"
   xmlns:cc="http://creativecommons.org/ns#"
   xmlns:rdf="http://www.w3.org/1999/02/22-rdf-syntax-ns#"
   xmlns:svg="http://www.w3.org/2000/svg"
   xmlns="http://www.w3.org/2000/svg"
   xmlns:sodipodi="http://sodipodi.sourceforge.net/DTD/sodipodi-0.dtd"
   xmlns:inkscape="http://www.inkscape.org/namespaces/inkscape"
   width="210mm"
   height="297mm"
   viewBox="0 0 210 297"
   version="1.1"
   id="svg8"
   inkscape:version="0.92.2 5c3e80d, 2017-08-06"
   sodipodi:docname="drawing.svg">
  <defs
     id="defs2" />
  <sodipodi:namedview
     id="base"
     pagecolor="#ffffff"
     bordercolor="#666666"
     borderopacity="1.0"
     inkscape:pageopacity="0.0"
     inkscape:pageshadow="2"
     inkscape:zoom="0.98994949"
     inkscape:cx="448.57143"
     inkscape:cy="674.28571"
     inkscape:document-units="mm"
     inkscape:current-layer="layer1"
     showgrid="false"
     inkscape:window-width="1440"
     inkscape:window-height="851"
     inkscape:window-x="0"
     inkscape:window-y="0"
     inkscape:window-maximized="1" />
  <metadata
     id="metadata5">
    <rdf:RDF>
      <cc:Work
         rdf:about="">
        <dc:format>image/svg+xml</dc:format>
        <dc:type
           rdf:resource="http://purl.org/dc/dcmitype/StillImage" />
        <dc:title></dc:title>
      </cc:Work>
    </rdf:RDF>
  </metadata>
  <g
     inkscape:label="Layer 1"
     inkscape:groupmode="layer"
     id="layer1">
    <g
       aria-label="StickyNotes"
       style="font-style:normal;font-variant:normal;font-weight:500;font-stretch:normal;font-size:25.39999962px;line-height:1.25;font-family:'Brush Script Std';-inkscape-font-specification:'Brush Script Std, Medium';font-variant-ligatures:normal;font-variant-caps:normal;font-variant-numeric:normal;font-feature-settings:normal;text-align:start;letter-spacing:0px;word-spacing:0px;writing-mode:lr-tb;text-anchor:start;fill:#000000;fill-opacity:1;stroke:none;stroke-width:0.26458332"
       id="text3701">
      
      <path
         d="m 90.358331,95.7812 c 0.254,-0.3556 0.9906,-1.1938 0.9906,-1.651 0,-0.4064 -0.4826,-0.4826 -0.8128,-0.4826 -1.4732,0 -2.032,1.1938 -2.794,2.2352 -2.7178,0.1016 -2.921,0.508 -4.2926,2.7432 l -0.2794,0.4572 c 1.3462,-0.2032 0.8636,-0.1016 2.413,-0.1016 -0.9398,1.6002 -2.3368,2.8956 -3.8608,4.064 l 0.2794,0.9652 1.2954,-1.0414 0.0508,0.0508 c -0.3302,0.7366 -0.6604,1.7018 -0.6604,2.54 0,1.016 0.6096,1.7018 1.6002,1.7018 2.159,0 4.9022,-2.7178 6.4008,-4.0894 l -0.127,-1.1176 c -2.6416,1.8796 -3.556,2.6416 -4.3688,2.6416 -0.5842,0 -0.762,-0.3302 -0.762,-0.889 0,-1.524 1.4478,-3.6068 2.3114,-4.7244 2.794,0.1778 2.9972,-0.762 4.191,-3.175 z"
         style="font-style:normal;font-variant:normal;font-weight:500;font-stretch:normal;font-size:25.39999962px;font-family:'Brush Script Std';-inkscape-font-specification:'Brush Script Std, Medium';font-variant-ligatures:normal;font-variant-caps:normal;font-variant-numeric:normal;font-feature-settings:normal;text-align:start;writing-mode:lr-tb;text-anchor:start;fill:#ffffff;stroke-width:0.26458332"
         id="path3728" />
      <path
         d="m 97.494938,102.2328 c -1.016,0.7366 -2.3368,2.0828 -3.683,2.0828 -1.1684,0 -1.5494,-0.5588 -1.3462,-1.6002 1.0668,-0.7366 3.5814,-2.9972 3.5814,-4.2672 0,-0.5588 -0.6858,-0.7112 -1.1176,-0.7112 -1.524,0 -4.699,3.0226 -4.699,6.1214 0,1.2954 0.6858,3.0226 2.1844,3.0226 1.9304,0 4.1656,-2.286 5.3086,-3.683 z m -1.1938,-5.0038 c 1.0922,0 2.031999,-1.2446 2.031999,-2.2606 0,-0.4572 -0.381,-0.7874 -0.838199,-0.7874 -0.9906,0 -2.2098,0.9144 -2.2098,1.9558 0,0.6096 0.4064,1.0922 1.016,1.0922 z"
         style="font-style:normal;font-variant:normal;font-weight:500;font-stretch:normal;font-size:25.39999962px;font-family:'Brush Script Std';-inkscape-font-specification:'Brush Script Std, Medium';font-variant-ligatures:normal;font-variant-caps:normal;font-variant-numeric:normal;font-feature-settings:normal;text-align:start;writing-mode:lr-tb;text-anchor:start;fill:#ffffff;stroke-width:0.26458332"
         id="path3730" />
      <path
         d="m 102.53287,100.1246 c 0.0254,0.4826 0.2794,1.1176 0.8636,1.1176 0.6858,0 2.6924,-1.9558 2.6924,-3.3528 0,-0.762 -0.3556,-1.1684 -1.143,-1.1684 -1.4224,0 -3.8608,1.3716 -5.0038,2.2352 -1.651,1.2446 -2.413,2.032 -2.413,4.1656 0,1.8796 0.9398,3.7084 2.8956,3.7084 2.413,0 5.2578,-2.5146 6.8072,-4.1656 l -0.3048,-0.9906 c -1.4732,1.143 -3.683,2.921 -5.6134,2.921 -1.3208,0 -1.9304,-0.7874 -1.9304,-1.3716 0,-0.7112 0.4572,-1.0922 1.016,-1.4986 z"
         style="font-style:normal;font-variant:normal;font-weight:500;font-stretch:normal;font-size:25.39999962px;font-family:'Brush Script Std';-inkscape-font-specification:'Brush Script Std, Medium';font-variant-ligatures:normal;font-variant-caps:normal;font-variant-numeric:normal;font-feature-settings:normal;text-align:start;writing-mode:lr-tb;text-anchor:start;fill:#ffffff;stroke-width:0.26458332"
         id="path3732" />
      <path
         d="m 118.84919,90.5742 c 0,-0.3556 -0.2794,-0.635 -0.635,-0.6604 -1.1176,-0.0762 -7.2136,4.8006 -9.9568,9.1186 -0.8636,1.3462 -1.8796,2.667 -1.8796,4.2926 0,0.6096 0.2286,3.0734 1.1176,3.0734 0.4826,0 0.7112,-0.381 0.9144,-0.762 0.381,-0.635 0.7874,-1.2192 1.3462,-1.7272 0.7874,1.2192 1.9558,3.1496 3.6322,3.1496 1.7018,0 4.7498,-2.921 6.0198,-4.0386 l -0.254,-1.0414 c -3.1496,2.5146 -4.1402,2.8702 -4.6228,2.8448 -0.889,-0.0508 -1.1684,-0.4572 -1.651,-1.1176 1.7018,-1.016 5.1308,-2.3114 5.1308,-4.6736 0,-0.7366 -0.4572,-1.8288 -1.3208,-1.8288 -1.7272,0 -7.112,4.6482 -8.4836,5.8928 l 0.0508,-0.6858 c 1.524,-1.6764 10.5918,-10.0838 10.5918,-11.8364 z m -6.6802,12.3952 c -0.2794,-0.254 -0.6096,-0.4318 -0.9652,-0.5588 0.635,-0.8636 3.302,-2.6416 4.2418,-2.6416 0.127,0 0.3302,0.0508 0.3302,0.2032 0,0.5334 -0.8382,1.0668 -1.2192,1.3462 z"
         style="font-style:normal;font-variant:normal;font-weight:500;font-stretch:normal;font-size:25.39999962px;font-family:'Brush Script Std';-inkscape-font-specification:'Brush Script Std, Medium';font-variant-ligatures:normal;font-variant-caps:normal;font-variant-numeric:normal;font-feature-settings:normal;text-align:start;writing-mode:lr-tb;text-anchor:start;fill:#ffffff;stroke-width:0.26458332"
         id="path3734" />
      <path
         d="m 130.84752,102.309 -0.2032,-0.9398 -5.6388,5.0038 -0.0508,-0.0508 3.7592,-5.588 c 0.3556,-0.5334 1.0414,-1.5748 1.0414,-2.2352 0,-0.3556 -0.254,-1.3462 -0.6858,-1.27 -0.4826,0.0762 -2.1082,1.8288 -4.7244,4.2418 -1.0668,0.9906 -2.286,2.0828 -3.6322,2.2352 0.0254,-0.5334 0.1778,-1.0414 0.4826,-1.4732 0.8382,-0.6604 3.7084,-3.302 3.7084,-4.2672 0,-0.3556 -0.7112,-1.1684 -1.0922,-1.1684 -0.7112,0.0254 -5.0546,3.2512 -4.953,6.2992 0.0762,1.8796 1.2954,2.9464 2.0066,2.9972 0.3048,0.0254 2.159,-1.3462 4.2418,-3.0988 l 0.0508,0.0508 -3.4036,5.7404 c -0.2032,0.3302 -0.6858,1.1176 -0.6858,1.524 0,0.4318 0.2286,1.6764 0.762,1.6764 0.4064,0 1.1176,-0.9906 1.3716,-1.27 z"
         style="font-style:normal;font-variant:normal;font-weight:500;font-stretch:normal;font-size:25.39999962px;font-family:'Brush Script Std';-inkscape-font-specification:'Brush Script Std, Medium';font-variant-ligatures:normal;font-variant-caps:normal;font-variant-numeric:normal;font-feature-settings:normal;text-align:start;writing-mode:lr-tb;text-anchor:start;fill:#ffffff;stroke-width:0.26458332"
         id="path3736" />
      <path
         d="m 144.21824,101.6486 c -0.6604,1.2192 -1.3716,2.8194 -1.3716,4.2164 0,1.0922 0.4572,2.2098 1.7272,2.2098 1.0922,0 3.7592,-1.3716 7.4168,-6.096 0.2032,-0.254 0.2794,-0.381 0.2794,-0.5842 0,-0.2286 -0.0508,-0.5334 -0.1016,-1.143 -0.7366,0.9144 -4.064,4.3434 -5.08,4.3434 -0.5588,0 -0.6604,-0.5842 -0.6604,-1.0414 0,-0.1016 0.0508,-0.6096 0.7874,-2.0828 2.4384,-4.826 5.6896,-8.1026 5.6896,-9.7028 0,-1.2192 -1.651,-2.413 -2.0828,-2.413 -0.5842,0 -2.4892,1.4478 -3.2512,1.9558 -0.635,0.4318 -2.794,2.54 -7.6708,8.4074 l -0.0508,-0.0508 c 3.2766,-5.7658 4.2672,-7.4422 4.4196,-9.4742 0.0762,-0.9398 -0.762,-1.4224 -1.6256,-1.4224 -2.1082,0 -5.2578,1.778 -7.0612,2.7686 l -0.0508,-0.0508 c 1.2446,-1.1938 1.3716,-1.6002 1.3716,-1.6256 0,-0.127 -0.1524,-0.2032 -0.2794,-0.2032 -0.762,0 -5.1562,3.2766 -5.1562,6.3246 0,0.3048 -0.0254,1.1176 0.4572,1.1176 0.2286,0 0.5588,-0.1778 0.762,-0.3302 4.2672,-2.8194 7.0612,-4.191 7.9248,-4.191 0.3302,0 0.4064,0.2032 0.4064,0.5334 0,1.397 -4.8768,9.906 -5.9182,11.5062 -0.0762,0.127 -0.254,0.4064 -0.254,0.5588 0,0.5842 1.4478,1.6002 2.0066,1.6002 0.3302,0 0.635,-0.4572 0.8128,-0.7112 1.3462,-1.8034 4.0386,-5.461 4.7752,-6.2992 1.8034,-2.032 3.9116,-4.0894 6.0452,-6.1214 l 0.0508,0.0508 z"
         style="font-style:normal;font-variant:normal;font-weight:500;font-stretch:normal;font-size:25.39999962px;font-family:'Brush Script Std';-inkscape-font-specification:'Brush Script Std, Medium';font-variant-ligatures:normal;font-variant-caps:normal;font-variant-numeric:normal;font-feature-settings:normal;text-align:start;writing-mode:lr-tb;text-anchor:start;fill:#ffffff;stroke-width:0.26458332"
         id="path3738" />
      <path
         d="m 161.59025,101.6232 c -0.7874,0.5842 -1.4986,1.5494 -2.6162,1.3462 0.4826,-0.9906 0.9906,-1.8796 0.9906,-2.9972 0,-0.762 -0.1524,-1.2954 -0.9144,-1.4986 0.2794,-0.1524 0.5842,-0.3048 0.5842,-0.6858 0,-0.6858 -0.8382,-0.9398 -1.397,-0.9144 -1.5494,0.0762 -3.3782,0.762 -4.7498,1.8796 -1.4224,1.0922 -2.3622,2.3622 -2.3114,4.2672 0.1016,2.3114 1.3208,3.6322 2.6416,3.6322 1.6002,0 2.8448,-0.8128 3.9116,-1.905 1.8542,0 2.9718,-0.6096 4.1148,-2.0574 z m -4.6736,-1.9812 c 0.1016,0.0508 -1.0922,1.651 -1.0922,2.9718 0,0.4318 0.127,0.762 0.3048,1.1684 -0.5842,0.5334 -1.1176,1.016 -1.9558,1.016 -0.635,0 -1.1176,-0.2286 -1.1176,-0.9652 0,-0.7874 0.4826,-1.778 1.0414,-2.3368 0.762,-0.7366 1.9558,-1.3462 2.8194,-1.8542 z"
         style="font-style:normal;font-variant:normal;font-weight:500;font-stretch:normal;font-size:25.39999962px;font-family:'Brush Script Std';-inkscape-font-specification:'Brush Script Std, Medium';font-variant-ligatures:normal;font-variant-caps:normal;font-variant-numeric:normal;font-feature-settings:normal;text-align:start;writing-mode:lr-tb;text-anchor:start;fill:#ffffff;stroke-width:0.26458332"
         id="path3740" />
      <path
         d="m 168.79075,95.7812 c 0.254,-0.3556 0.9906,-1.1938 0.9906,-1.651 0,-0.4064 -0.4826,-0.4826 -0.8128,-0.4826 -1.4732,0 -2.032,1.1938 -2.794,2.2352 -2.7178,0.1016 -2.921,0.508 -4.2926,2.7432 l -0.2794,0.4572 c 1.3462,-0.2032 0.8636,-0.1016 2.413,-0.1016 -0.9398,1.6002 -2.3368,2.8956 -3.8608,4.064 l 0.2794,0.9652 1.2954,-1.0414 0.0508,0.0508 c -0.3302,0.7366 -0.6604,1.7018 -0.6604,2.54 0,1.016 0.6096,1.7018 1.6002,1.7018 2.159,0 4.9022,-2.7178 6.4008,-4.0894 l -0.127,-1.1176 c -2.6416,1.8796 -3.556,2.6416 -4.3688,2.6416 -0.5842,0 -0.762,-0.3302 -0.762,-0.889 0,-1.524 1.4478,-3.6068 2.3114,-4.7244 2.794,0.1778 2.9972,-0.762 4.191,-3.175 z"
         style="font-style:normal;font-variant:normal;font-weight:500;font-stretch:normal;font-size:25.39999962px;font-family:'Brush Script Std';-inkscape-font-specification:'Brush Script Std, Medium';font-variant-ligatures:normal;font-variant-caps:normal;font-variant-numeric:normal;font-feature-settings:normal;text-align:start;writing-mode:lr-tb;text-anchor:start;fill:#ffffff;stroke-width:0.26458332"
         id="path3742" />
      <path
         d="m 178.18796,101.7502 c -1.3462,1.0668 -3.4798,2.921 -5.2832,2.921 -0.8128,0 -1.651,-0.3302 -1.5748,-1.2954 l 0.0508,-0.5588 c 4.8768,-1.6002 6.1214,-3.4798 6.1214,-4.7244 0,-1.016 -1.016,-1.2192 -1.8288,-1.2192 -3.302,-0.0254 -6.985,3.3782 -6.8834,6.7056 0.0508,1.6764 0.9144,3.3274 2.7686,3.3274 2.5146,0 5.3086,-2.3876 6.858,-4.191 z m -6.6548,-0.1778 c 0.6858,-1.6764 2.159,-2.8956 3.429,-3.2258 0.1778,-0.0508 0.3048,0.1016 0.3048,0.2794 0.0254,0.4318 -1.4986,2.1844 -3.7338,2.9464 z"
         style="font-style:normal;font-variant:normal;font-weight:500;font-stretch:normal;font-size:25.39999962px;font-family:'Brush Script Std';-inkscape-font-specification:'Brush Script Std, Medium';font-variant-ligatures:normal;font-variant-caps:normal;font-variant-numeric:normal;font-feature-settings:normal;text-align:start;writing-mode:lr-tb;text-anchor:start;fill:#ffffff;stroke-width:0.26458332"
         id="path3744" />
      <path
         d="m 181.93247,99.2356 c 0.1524,0.8636 0.254,1.5494 0.3302,2.0828 -0.0762,1.4732 -0.4826,1.905 -2.0066,2.8448 -0.4826,-0.6604 -1.0414,-1.4478 -1.9812,-1.4986 z m 3.4544,4.064 c -1.2446,0.9398 -2.2352,1.7018 -3.8608,1.4224 1.6256,-0.9906 3.302,-2.54 3.302,-4.6228 0,-1.1176 -0.381,-1.9812 -0.4826,-2.9464 -0.0762,-0.7112 -0.2286,-0.9398 -0.9906,-0.9398 -0.9144,0 -1.397,0.8128 -1.4478,1.651 l -5.5118,5.0546 c -0.2032,0.2032 -0.6096,0.5588 -0.6096,0.889 0,0.2286 0.1778,0.4826 0.4318,0.4826 0.2286,0 0.4064,-0.1778 0.5588,-0.3302 0.4572,1.8542 2.3368,2.8194 4.0386,2.8956 2.032,0.1016 4.8006,-2.2098 6.35,-3.7592 l -0.254,-0.9652 z"
         style="font-style:normal;font-variant:normal;font-weight:500;font-stretch:normal;font-size:25.39999962px;font-family:'Brush Script Std';-inkscape-font-specification:'Brush Script Std, Medium';font-variant-ligatures:normal;font-variant-caps:normal;font-variant-numeric:normal;font-feature-settings:normal;text-align:start;writing-mode:lr-tb;text-anchor:start;fill:#ffffff;stroke-width:0.26458332"
         id="path3746" />
    </g>
  </g>
</svg>
